# xmcd CD database file
#
# Track frame offsets:
#	150
#	26467
#	47651
#	73959
#	94010
#	102226
#	128598
#	155676
#	190623
#	229776
#	246811
#	271702
#	291056
#	317912
#
# Disc length: 4663 seconds
#
# Revision: 0
# Processed by: cddbd v1.5.2PL0 Copyright (c) Steve Scherf et al.
# Submitted via: CDex 1.70beta2
#
DISCID=bb12350e
DTITLE=Nils Wuelker - Decade Live
DYEAR=2018
DGENRE=Jazz
TTITLE0=wülker, nils - conquering the useless
TTITLE1=wülker, nils - you cannot imagine
TTITLE2=wülker, nils - wanderlust
TTITLE3=wülker, nils - grow
TTITLE4=wülker, nils - pull of the unknown_intro
TTITLE5=wülker, nils - pull of  the unknown
TTITLE6=wülker, nils - dawn
TTITLE7=wülker, nils - today's gravity
TTITLE8=wülker, nils - safely falling
TTITLE9=wülker, nils - five arches
TTITLE10=wülker, nils - season
TTITLE11=wülker, nils - circles
TTITLE12=wülker, nils - prism
TTITLE13=wülker, nils - stripped
EXTD=YEAR: 2018
EXTT0=
EXTT1=
EXTT2=
EXTT3=
EXTT4=
EXTT5=
EXTT6=
EXTT7=
EXTT8=
EXTT9=
EXTT10=
EXTT11=
EXTT12=
EXTT13=
PLAYORDER=
